<svg width="332.0" height="400" xmlns="http://www.w3.org/2000/svg"><rect width="100%" height="100%" fill="white"/><svg xmlns="http://www.w3.org/2000/svg" viewBox="0 0 240 400" width="240" height="400"><svg y="140" x="0" xmlns="http://www.w3.org/2000/svg" viewBox="0 0 80 120" width="80" height="120"  ><text x="40" y="10" font-family="Arial, Helvetica, sans-serif" dominant-baseline="central" text-anchor="middle">Yes</text><circle cx="40" cy="50" r="30" fill="hsl(25, 67%, 61%)"/><circle cx="40" cy="50" r="27.0" fill="hsl(0,0%,100%)"/><circle cx="40" cy="50" r="25.5" fill="hsl(25, 67%, 61%)"/><circle cx="40" cy="50" r="18.0" fill="hsl(0,0%,100%)"/><text x="40" y="50" font-family="Arial, Helvetica, sans-serif" dominant-baseline="central" text-anchor="middle">2</text></svg><line stroke="#444444" stroke-width="2" x1="120.0" y1="100" x2="40.0" y2="140"/>
<svg y="140" x="80" xmlns="http://www.w3.org/2000/svg" viewBox="0 0 160 260" width="160" height="260"><svg y="140" x="0" xmlns="http://www.w3.org/2000/svg" viewBox="0 0 80 120" width="80" height="120"  ><text x="40" y="10" font-family="Arial, Helvetica, sans-serif" dominant-baseline="central" text-anchor="middle">Yes</text><circle cx="40" cy="50" r="30" fill="hsl(234, 67%, 61%)"/><circle cx="40" cy="50" r="27.0" fill="hsl(0,0%,100%)"/><circle cx="40" cy="50" r="25.5" fill="hsl(234, 67%, 61%)"/><circle cx="40" cy="50" r="18.0" fill="hsl(0,0%,100%)"/><text x="40" y="50" font-family="Arial, Helvetica, sans-serif" dominant-baseline="central" text-anchor="middle">3</text></svg><line stroke="#444444" stroke-width="2" x1="80.0" y1="100" x2="40.0" y2="140"/>
<svg y="140" x="80" xmlns="http://www.w3.org/2000/svg" viewBox="0 0 80 120" width="80" height="120"  ><text x="40" y="10" font-family="Arial, Helvetica, sans-serif" dominant-baseline="central" text-anchor="middle">No</text><circle cx="40" cy="50" r="30" fill="hsl(83, 67%, 61%)"/><circle cx="40" cy="50" r="27.0" fill="hsl(0,0%,100%)"/><path d="M40,50 L40.0,24.5 A25.5,25.5 0 0,1 40.0,24.5 z" fill="hsl(25, 67%, 61%)" stroke="hsl(25, 67%, 61%)" stroke-width="0.1"/><path d="M40,50 L40.0,24.5 A25.5,25.5 0 1,1 21.9687770797,31.9687770797 z" fill="hsl(83, 67%, 61%)" stroke="hsl(83, 67%, 61%)" stroke-width="0.1"/><path d="M40,50 L21.9687770797,31.9687770797 A25.5,25.5 0 0,1 40.0,24.5 z" fill="hsl(234, 67%, 61%)" stroke="hsl(234, 67%, 61%)" stroke-width="0.1"/><circle cx="40" cy="50" r="18.0" fill="hsl(0,0%,100%)"/><text x="40" y="50" font-family="Arial, Helvetica, sans-serif" dominant-baseline="central" text-anchor="middle">8</text></svg><line stroke="#444444" stroke-width="2" x1="80.0" y1="100" x2="120.0" y2="140"/>
<svg xmlns="http://www.w3.org/2000/svg" viewBox="0 0 80 120" width="80" height="120" x="40.0" ><text x="40" y="10" font-family="Arial, Helvetica, sans-serif" dominant-baseline="central" text-anchor="middle">No</text><circle cx="40" cy="50" r="30" fill="hsl(83, 67%, 61%)"/><circle cx="40" cy="50" r="27.0" fill="hsl(0,0%,100%)"/><path d="M40,50 L40.0,24.5 A25.5,25.5 0 0,1 40.0,24.5 z" fill="hsl(25, 67%, 61%)" stroke="hsl(25, 67%, 61%)" stroke-width="0.1"/><path d="M40,50 L40.0,24.5 A25.5,25.5 0 1,1 20.728385854,66.6989487156 z" fill="hsl(83, 67%, 61%)" stroke="hsl(83, 67%, 61%)" stroke-width="0.1"/><path d="M40,50 L20.728385854,66.6989487156 A25.5,25.5 0 0,1 40.0,24.5 z" fill="hsl(234, 67%, 61%)" stroke="hsl(234, 67%, 61%)" stroke-width="0.1"/><circle cx="40" cy="50" r="18.0" fill="hsl(0,0%,100%)"/><text x="40" y="50" font-family="Arial, Helvetica, sans-serif" dominant-baseline="central" text-anchor="middle">11</text><text x="40" y="90" font-family="Arial, Helvetica, sans-serif" dominant-baseline="central" text-anchor="middle">Dairy</text></svg></svg><line stroke="#444444" stroke-width="2" x1="120.0" y1="100" x2="160.0" y2="140"/>
<svg xmlns="http://www.w3.org/2000/svg" viewBox="0 0 80 120" width="80" height="120" x="80.0" ><circle cx="40" cy="50" r="30" fill="hsl(83, 67%, 61%)"/><circle cx="40" cy="50" r="27.0" fill="hsl(0,0%,100%)"/><path d="M40,50 L40.0,24.5 A25.5,25.5 0 0,1 60.9860885803,35.5143489584 z" fill="hsl(25, 67%, 61%)" stroke="hsl(25, 67%, 61%)" stroke-width="0.1"/><path d="M40,50 L60.9860885803,35.5143489584 A25.5,25.5 0 1,1 16.1570858115,59.0424246196 z" fill="hsl(83, 67%, 61%)" stroke="hsl(83, 67%, 61%)" stroke-width="0.1"/><path d="M40,50 L16.1570858115,59.0424246196 A25.5,25.5 0 0,1 40.0,24.5 z" fill="hsl(234, 67%, 61%)" stroke="hsl(234, 67%, 61%)" stroke-width="0.1"/><circle cx="40" cy="50" r="18.0" fill="hsl(0,0%,100%)"/><text x="40" y="50" font-family="Arial, Helvetica, sans-serif" dominant-baseline="central" text-anchor="middle">13</text><text x="40" y="90" font-family="Arial, Helvetica, sans-serif" dominant-baseline="central" text-anchor="middle">Meat</text></svg></svg><svg width="152" height="92" x="170.0" y="10" xmlns="http://www.w3.org/2000/svg"><svg width="152" height="92" xmlns="http://www.w3.org/2000/svg">
        <rect rx="5" ry="5" width="150" height="90" x="1" y="1" stroke="#AAAAAA" stroke-width="2" fill="white"/><text x="75" y="15" font-family="Arial, Helvetica, sans-serif" font-weight="bold" dominant-baseline="central" text-anchor="middle">Diet</text><line stroke="hsl(25, 67%, 61%)" stroke-width="2.5" x1="10" x2="30" y1="35" y2="35"/><text x="35" y="35" font-family="Arial, Helvetica, sans-serif" dominant-baseline="central">Meat-Based</text><line stroke="hsl(83, 67%, 61%)" stroke-width="2.5" x1="10" x2="30" y1="55" y2="55"/><text x="35" y="55" font-family="Arial, Helvetica, sans-serif" dominant-baseline="central">Vegan</text><line stroke="hsl(234, 67%, 61%)" stroke-width="2.5" x1="10" x2="30" y1="75" y2="75"/><text x="35" y="75" font-family="Arial, Helvetica, sans-serif" dominant-baseline="central">Vegetarian</text></svg></svg></svg>